<svg xmlns="http://www.w3.org/2000/svg" xmlns:xlink="http://www.w3.org/1999/xlink" width="500" zoomAndPan="magnify" viewBox="0 0 375 374.999991" height="500" preserveAspectRatio="xMidYMid meet" version="1.0"><defs><g/><clipPath id="f3888d5ba1"><path d="M 183.492188 96.917969 L 278.472656 96.917969 L 278.472656 246.917969 L 183.492188 246.917969 Z M 183.492188 96.917969 " clip-rule="nonzero"/></clipPath><clipPath id="bec212492a"><path d="M 97.117188 54.285156 L 192.367188 54.285156 L 192.367188 204.285156 L 97.117188 204.285156 Z M 97.117188 54.285156 " clip-rule="nonzero"/></clipPath><clipPath id="bfce33c86e"><path d="M 163 89 L 230.792969 89 L 230.792969 223 L 163 223 Z M 163 89 " clip-rule="nonzero"/></clipPath><clipPath id="214ebe2564"><path d="M 154.292969 75.601562 L 229 75.601562 L 229 225.601562 L 154.292969 225.601562 Z M 154.292969 75.601562 " clip-rule="nonzero"/></clipPath></defs><rect x="-37.5" width="450" fill="#ffffff" y="-37.499999" height="449.999989" fill-opacity="1"/><rect x="-37.5" width="450" fill="#ffffff" y="-37.499999" height="449.999989" fill-opacity="1"/><rect x="-37.5" width="450" fill="#222831" y="-37.499999" height="449.999989" fill-opacity="1"/><g clip-path="url(#f3888d5ba1)"><path fill="#f7f7f8" d="M 242.636719 201.289062 C 235.734375 205.902344 227.1875 205.304688 227.1875 205.304688 C 227.1875 205.304688 247.179688 194.183594 253.21875 169.039062 C 251.246094 171.796875 238.933594 177.910156 238.933594 177.910156 C 263.082031 153.273438 255.429688 99.386719 254.953125 96.988281 C 254.953125 96.988281 270.730469 124.800781 267.683594 149.289062 C 271.660156 146.679688 278.800781 138.289062 278.742188 138.109375 C 278.921875 145.0625 271.597656 175.0625 261.019531 184.625 C 266.160156 184.144531 275.601562 175.992188 275.871094 175.871094 C 245.238281 223.855469 183.609375 246.84375 183.492188 246.84375 C 183.492188 246.84375 234.417969 218.730469 242.636719 201.289062 Z M 242.636719 201.289062 " fill-opacity="1" fill-rule="nonzero"/></g><g clip-path="url(#bec212492a)"><path fill="#f7f7f8" d="M 133.222656 99.914062 C 140.125 95.296875 148.671875 95.894531 148.671875 95.894531 C 148.671875 95.894531 128.679688 107.015625 122.640625 132.160156 C 124.613281 129.40625 136.929688 123.289062 136.929688 123.289062 C 112.777344 147.925781 120.429688 201.816406 120.910156 204.214844 C 120.910156 204.214844 105.128906 176.398438 108.175781 151.914062 C 104.203125 154.519531 97.058594 162.914062 97.117188 163.09375 C 96.9375 156.140625 104.261719 126.136719 114.839844 116.578125 C 109.699219 117.054688 100.257812 125.207031 99.988281 125.328125 C 130.621094 77.34375 192.25 54.355469 192.367188 54.355469 C 192.367188 54.355469 141.441406 82.46875 133.222656 99.914062 Z M 133.222656 99.914062 " fill-opacity="1" fill-rule="nonzero"/></g><g clip-path="url(#bfce33c86e)"><path fill="#fff46e" d="M 204.476562 140.589844 L 216.453125 98.785156 L 219.210938 89.164062 L 213.402344 97.304688 L 165.652344 164.210938 L 163.195312 167.652344 L 167.351562 166.910156 L 186.222656 163.550781 L 169.164062 212.132812 L 165.496094 222.582031 L 172.160156 213.746094 L 228.152344 139.507812 L 230.78125 136.023438 L 226.488281 136.769531 L 204.476562 140.589844 " fill-opacity="1" fill-rule="nonzero"/></g><g clip-path="url(#214ebe2564)"><path fill="#f7f7f8" d="M 182.898438 156.046875 L 164.492188 208.460938 L 221.75 132.546875 L 196.820312 136.875 L 209.828125 91.476562 L 160.953125 159.957031 Z M 155.347656 225.527344 L 178.402344 159.875 L 154.289062 164.171875 L 217.449219 75.675781 L 200.988281 133.128906 L 228.664062 128.324219 L 155.347656 225.527344 " fill-opacity="1" fill-rule="nonzero"/></g><g fill="#ffffff" fill-opacity="1"><g transform="translate(122.660199, 282.423469)"><g><path d="M 10.136719 0 L 14.246094 0 L 14.246094 -14.738281 L 23.371094 -14.738281 L 23.371094 -18.195312 L 1.015625 -18.195312 L 1.015625 -14.738281 L 10.136719 -14.738281 Z M 10.136719 0 "/></g></g></g><g fill="#ffffff" fill-opacity="1"><g transform="translate(147.040897, 282.423469)"><g><path d="M 1.273438 0 L 5.382812 0 L 5.382812 -18.195312 L 1.273438 -18.195312 Z M 1.273438 0 "/></g></g></g><g fill="#ffffff" fill-opacity="1"><g transform="translate(153.694904, 282.423469)"><g><path d="M 1.792969 -7.175781 L 22.589844 -7.175781 L 22.589844 -10.503906 L 1.792969 -10.503906 Z M 1.792969 -7.175781 "/></g></g></g><g fill="#ffffff" fill-opacity="1"><g transform="translate(178.075601, 282.423469)"><g><path d="M 1.273438 0 L 18.429688 0 L 18.429688 -3.457031 L 11.90625 -3.457031 L 11.90625 -18.195312 L 7.796875 -18.195312 C 7.796875 -14.453125 3.953125 -14.453125 1.273438 -14.453125 L 1.273438 -11.023438 C 3.171875 -11.023438 5.875 -11.023438 7.851562 -12.761719 L 7.796875 -3.457031 L 1.273438 -3.457031 Z M 1.273438 0 "/></g></g></g><g fill="#ffffff" fill-opacity="1"><g transform="translate(197.777703, 282.423469)"><g><path d="M 12.191406 0.261719 C 18.613281 0.261719 22.070312 -1.898438 22.070312 -6.136719 C 22.070312 -10.65625 18.613281 -12.398438 13.152344 -12.398438 C 9.382812 -12.398438 6.863281 -11.332031 5.484375 -10.269531 C 5.953125 -14.375 8.214844 -15.15625 12.242188 -15.15625 C 15.621094 -15.15625 18.273438 -14.558594 20.847656 -14.0625 L 20.847656 -17.363281 C 18.636719 -17.832031 15.621094 -18.457031 11.101562 -18.457031 C 5.746094 -18.457031 1.273438 -16.195312 1.273438 -8.65625 C 1.273438 -2.78125 4.339844 0.261719 12.191406 0.261719 Z M 11.671875 -3.042969 C 7.226562 -3.042969 5.382812 -4.316406 5.382812 -6.394531 C 5.382812 -8.472656 7.382812 -9.695312 11.671875 -9.695312 C 16.53125 -9.695312 17.960938 -8.449219 17.960938 -6.394531 C 17.960938 -4.316406 16.507812 -3.042969 11.671875 -3.042969 Z M 11.671875 -3.042969 "/></g></g></g><g fill="#ffffff" fill-opacity="1"><g transform="translate(221.118705, 282.423469)"><g><path d="M 1.015625 0 L 21.394531 0 L 21.394531 -3.457031 L 6.5 -3.457031 C 7.617188 -7.488281 21.652344 -5.382812 21.652344 -12.738281 C 21.652344 -17.261719 17.988281 -18.457031 11.722656 -18.457031 C 5.71875 -18.457031 1.457031 -17.078125 1.457031 -11.046875 L 5.589844 -11.046875 C 5.589844 -14.246094 7.511719 -15 11.984375 -15 C 16.507812 -15 17.546875 -14.21875 17.546875 -12.53125 C 17.546875 -7.953125 1.015625 -9.929688 1.015625 -2.183594 Z M 1.015625 0 "/></g></g></g><g fill="#fff46e" fill-opacity="1"><g transform="translate(55.536987, 316.529012)"><g><path d="M 0.839844 0 L 2.519531 0 L 2.519531 -2.855469 L 8.535156 -2.855469 C 10.761719 -2.855469 12.289062 -4.140625 12.289062 -6.324219 C 12.289062 -8.507812 10.761719 -9.796875 8.535156 -9.796875 L 0.839844 -9.796875 Z M 2.519531 -4.253906 L 2.519531 -8.398438 L 7.835938 -8.398438 C 8.902344 -8.398438 10.609375 -8.398438 10.609375 -6.324219 C 10.609375 -4.253906 8.902344 -4.253906 7.835938 -4.253906 Z M 2.519531 -4.253906 "/></g></g></g><g fill="#fff46e" fill-opacity="1"><g transform="translate(70.06175, 316.529012)"><g><path d="M 0.839844 0 L 2.519531 0 L 2.519531 -2.855469 L 8.003906 -2.855469 L 9.769531 0 L 11.726562 0 L 9.851562 -3.023438 C 11.351562 -3.441406 12.289062 -4.605469 12.289062 -6.324219 C 12.289062 -8.507812 10.761719 -9.796875 8.535156 -9.796875 L 0.839844 -9.796875 Z M 2.519531 -4.253906 L 2.519531 -8.398438 L 7.835938 -8.398438 C 8.902344 -8.398438 10.609375 -8.398438 10.609375 -6.324219 C 10.609375 -4.253906 8.902344 -4.253906 7.835938 -4.253906 Z M 2.519531 -4.253906 "/></g></g></g><g fill="#fff46e" fill-opacity="1"><g transform="translate(84.586513, 316.529012)"><g><path d="M 6.859375 0.140625 C 11.152344 0.140625 13.015625 -1.792969 13.015625 -4.914062 C 13.015625 -8.019531 11.152344 -9.9375 6.859375 -9.9375 C 2.546875 -9.9375 0.699219 -8.03125 0.699219 -4.914062 C 0.699219 -1.777344 2.546875 0.140625 6.859375 0.140625 Z M 6.859375 -1.257812 C 3.875 -1.257812 2.378906 -2.183594 2.378906 -4.914062 C 2.378906 -7.628906 3.863281 -8.535156 6.859375 -8.535156 C 9.851562 -8.535156 11.335938 -7.613281 11.335938 -4.914062 C 11.335938 -2.195312 9.839844 -1.257812 6.859375 -1.257812 Z M 6.859375 -1.257812 "/></g></g></g><g fill="#fff46e" fill-opacity="1"><g transform="translate(99.838868, 316.529012)"><g><path d="M 6.660156 0 L 8.339844 0 L 8.339844 -3.21875 L 14.304688 -9.796875 L 12.132812 -9.796875 L 7.5 -4.703125 L 2.867188 -9.796875 L 0.699219 -9.796875 L 6.660156 -3.21875 Z M 6.660156 0 "/></g></g></g><g fill="#fff46e" fill-opacity="1"><g transform="translate(116.378512, 316.529012)"><g><path d="M 0.839844 0 L 11.195312 0 L 11.195312 -1.398438 L 2.519531 -1.398438 L 2.519531 -4.199219 L 11.195312 -4.199219 L 11.195312 -5.597656 L 2.519531 -5.597656 L 2.519531 -8.398438 L 11.195312 -8.398438 L 11.195312 -9.796875 L 0.839844 -9.796875 Z M 0.839844 0 "/></g></g></g><g fill="#fff46e" fill-opacity="1"><g transform="translate(129.811884, 316.529012)"><g><path d="M 6.859375 0.140625 C 10.75 0.140625 12.652344 -1.457031 12.972656 -4.074219 L 11.28125 -4.074219 C 10.984375 -2 9.363281 -1.257812 6.859375 -1.257812 C 4.015625 -1.257812 2.378906 -2.183594 2.378906 -4.914062 C 2.378906 -7.628906 4.003906 -8.535156 6.859375 -8.535156 C 9.375 -8.535156 10.984375 -7.808594 11.28125 -5.75 L 12.960938 -5.75 C 12.652344 -8.355469 10.75 -9.9375 6.859375 -9.9375 C 2.546875 -9.9375 0.699219 -8.03125 0.699219 -4.914062 C 0.699219 -1.777344 2.546875 0.140625 6.859375 0.140625 Z M 6.859375 0.140625 "/></g></g></g><g fill="#fff46e" fill-opacity="1"><g transform="translate(145.022259, 316.529012)"><g><path d="M 5.878906 0 L 7.558594 0 L 7.558594 -8.398438 L 12.734375 -8.398438 L 12.734375 -9.796875 L 0.699219 -9.796875 L 0.699219 -8.398438 L 5.878906 -8.398438 Z M 5.878906 0 "/></g></g></g><g fill="#fff46e" fill-opacity="1"><g transform="translate(159.994769, 316.529012)"><g><path d="M 6.859375 0.140625 C 11.152344 0.140625 13.015625 -1.792969 13.015625 -4.914062 C 13.015625 -8.019531 11.152344 -9.9375 6.859375 -9.9375 C 2.546875 -9.9375 0.699219 -8.03125 0.699219 -4.914062 C 0.699219 -1.777344 2.546875 0.140625 6.859375 0.140625 Z M 6.859375 -1.257812 C 3.875 -1.257812 2.378906 -2.183594 2.378906 -4.914062 C 2.378906 -7.628906 3.863281 -8.535156 6.859375 -8.535156 C 9.851562 -8.535156 11.335938 -7.613281 11.335938 -4.914062 C 11.335938 -2.195312 9.839844 -1.257812 6.859375 -1.257812 Z M 6.859375 -1.257812 "/></g></g></g><g fill="#fff46e" fill-opacity="1"><g transform="translate(175.247122, 316.529012)"><g/></g></g><g fill="#fff46e" fill-opacity="1"><g transform="translate(183.783224, 316.529012)"><g><path d="M 0.839844 0 L 2.519531 0 L 2.519531 -2.855469 L 8.003906 -2.855469 L 9.769531 0 L 11.726562 0 L 9.851562 -3.023438 C 11.351562 -3.441406 12.289062 -4.605469 12.289062 -6.324219 C 12.289062 -8.507812 10.761719 -9.796875 8.535156 -9.796875 L 0.839844 -9.796875 Z M 2.519531 -4.253906 L 2.519531 -8.398438 L 7.835938 -8.398438 C 8.902344 -8.398438 10.609375 -8.398438 10.609375 -6.324219 C 10.609375 -4.253906 8.902344 -4.253906 7.835938 -4.253906 Z M 2.519531 -4.253906 "/></g></g></g><g fill="#fff46e" fill-opacity="1"><g transform="translate(198.307984, 316.529012)"><g><path d="M 0.839844 0 L 11.195312 0 L 11.195312 -1.398438 L 2.519531 -1.398438 L 2.519531 -4.199219 L 11.195312 -4.199219 L 11.195312 -5.597656 L 2.519531 -5.597656 L 2.519531 -8.398438 L 11.195312 -8.398438 L 11.195312 -9.796875 L 0.839844 -9.796875 Z M 0.839844 0 "/></g></g></g><g fill="#fff46e" fill-opacity="1"><g transform="translate(211.741355, 316.529012)"><g><path d="M 0.839844 0 L 10.917969 0 L 10.917969 -1.398438 L 2.519531 -1.398438 L 2.519531 -9.796875 L 0.839844 -9.796875 Z M 0.839844 0 "/></g></g></g><g fill="#fff46e" fill-opacity="1"><g transform="translate(224.894885, 316.529012)"><g><path d="M 4.730469 -11.195312 L 10.175781 -12.316406 L 10.175781 -13.714844 L 4.730469 -12.59375 Z M 0.699219 0 L 2.5625 0 L 3.945312 -2.324219 L 10.972656 -2.324219 L 12.359375 0 L 14.21875 0 L 8.410156 -9.796875 L 6.507812 -9.796875 Z M 4.773438 -3.722656 L 7.460938 -8.257812 L 10.144531 -3.722656 Z M 4.773438 -3.722656 "/></g></g></g><g fill="#fff46e" fill-opacity="1"><g transform="translate(241.350572, 316.529012)"><g><path d="M 0.839844 0 L 2.519531 0 L 2.519531 -8.132812 L 7.640625 0 L 9.039062 0 L 14.164062 -8.132812 L 14.164062 0 L 15.84375 0 L 15.84375 -9.796875 L 13.253906 -9.796875 L 8.339844 -1.945312 L 3.429688 -9.796875 L 0.839844 -9.796875 Z M 0.839844 0 "/></g></g></g><g fill="#fff46e" fill-opacity="1"><g transform="translate(259.569267, 316.529012)"><g><path d="M 0.839844 0 L 2.519531 0 L 2.519531 -2.855469 L 8.535156 -2.855469 C 10.761719 -2.855469 12.289062 -4.140625 12.289062 -6.324219 C 12.289062 -8.507812 10.761719 -9.796875 8.535156 -9.796875 L 0.839844 -9.796875 Z M 2.519531 -4.253906 L 2.519531 -8.398438 L 7.835938 -8.398438 C 8.902344 -8.398438 10.609375 -8.398438 10.609375 -6.324219 C 10.609375 -4.253906 8.902344 -4.253906 7.835938 -4.253906 Z M 2.519531 -4.253906 "/></g></g></g><g fill="#fff46e" fill-opacity="1"><g transform="translate(274.094039, 316.529012)"><g><path d="M 0.699219 0 L 2.5625 0 L 3.945312 -2.324219 L 10.972656 -2.324219 L 12.359375 0 L 14.21875 0 L 8.410156 -9.796875 L 6.507812 -9.796875 Z M 4.773438 -3.722656 L 7.460938 -8.257812 L 10.144531 -3.722656 Z M 4.773438 -3.722656 "/></g></g></g><g fill="#fff46e" fill-opacity="1"><g transform="translate(290.549726, 316.529012)"><g><path d="M 6.578125 0.140625 C 8.703125 0.140625 10.300781 -0.585938 11.292969 -1.652344 L 11.292969 0 L 12.972656 0 L 12.972656 -5.191406 L 6.859375 -5.191406 L 6.859375 -3.792969 L 11.292969 -3.792969 C 11.292969 -2.996094 10.214844 -1.257812 6.996094 -1.257812 C 2.898438 -1.257812 2.378906 -3.707031 2.378906 -4.898438 C 2.378906 -6.074219 2.882812 -8.535156 6.996094 -8.535156 C 10.496094 -8.535156 11.152344 -6.957031 11.292969 -6.03125 L 12.972656 -6.03125 C 12.820312 -8.285156 10.917969 -9.9375 6.996094 -9.9375 C 2.96875 -9.9375 0.699219 -8.019531 0.699219 -4.898438 C 0.699219 -1.761719 2.96875 0.140625 6.578125 0.140625 Z M 6.578125 0.140625 "/></g></g></g><g fill="#fff46e" fill-opacity="1"><g transform="translate(305.760114, 316.529012)"><g><path d="M 6.859375 0.140625 C 11.152344 0.140625 13.015625 -1.792969 13.015625 -4.914062 C 13.015625 -8.019531 11.152344 -9.9375 6.859375 -9.9375 C 2.546875 -9.9375 0.699219 -8.03125 0.699219 -4.914062 C 0.699219 -1.777344 2.546875 0.140625 6.859375 0.140625 Z M 6.859375 -1.257812 C 3.875 -1.257812 2.378906 -2.183594 2.378906 -4.914062 C 2.378906 -7.628906 3.863281 -8.535156 6.859375 -8.535156 C 9.851562 -8.535156 11.335938 -7.613281 11.335938 -4.914062 C 11.335938 -2.195312 9.839844 -1.257812 6.859375 -1.257812 Z M 6.859375 -1.257812 "/></g></g></g></svg>